<?xml version="1.0" encoding="UTF-8"?>
<svg version="1.1" xmlns="http://www.w3.org/2000/svg" width="2000" height="2000">
<path d="M0 0 C4.03138901 0.00153704 8.06277417 0.00142889 12.09416318 0.00050974 C12.77417591 0.00035651 13.45418865 0.00020327 14.15480782 0.0000454 C15.53843915 -0.00027449 16.92207048 -0.00059871 18.3057018 -0.00092719 C31.12713501 -0.00374444 43.94856094 -0.00055516 56.76999296 0.00487317 C67.6472279 0.0093367 78.52445215 0.00856156 89.40168691 0.00395441 C102.19172076 -0.00146079 114.98174833 -0.00346906 127.77178317 -0.00043333 C129.1491915 -0.00011495 130.52659982 0.00019943 131.90400815 0.00050974 C132.58081673 0.00066401 133.25762532 0.00081829 133.95494325 0.00097724 C138.60612208 0.00182193 143.25729663 0.00037291 147.90847516 -0.00196981 C192.46988108 -0.0213405 236.9771219 0.65451469 281.50349355 2.4468255 C282.28730523 2.47793798 283.07111691 2.50905046 283.87868047 2.54110575 C309.69890495 3.56802769 335.32452916 5.13191324 360.94123769 8.66948175 C368.67165901 9.73365565 376.3433487 10.50788338 384.12849355 11.0093255 C395.20136056 11.80433512 405.9083389 13.5416585 416.78620839 15.70122004 C419.72132833 16.25882367 422.66805151 16.67279288 425.62849355 17.0718255 C432.34655151 18.05430829 438.89003429 19.70580118 445.47932363 21.31547785 C450.7305239 22.59473187 455.95839982 23.71378833 461.2886498 24.61479425 C467.19447552 25.71954084 473.02778225 27.18546042 478.86530995 28.60209894 C481.01779004 29.12266768 483.17253526 29.63286842 485.3277123 30.142138 C492.28010687 31.80724509 499.01468253 33.70251608 505.69880605 36.27104425 C508.36969369 37.24508084 511.07757989 37.87543428 513.84724355 38.50541925 C516.80105902 39.34268033 519.59162372 40.49258035 522.44099355 41.6343255 C526.38980372 43.20109678 530.06229733 44.44789337 534.25349355 45.1343255 C538.87489285 45.91824623 542.44990065 47.70551865 546.55818105 49.907763 C549.83842983 51.51212144 553.17850576 52.41637114 556.6870873 53.38823175 C559.71256872 54.33711016 562.39676584 55.68269037 565.1948998 57.157763 C568.98165978 59.13415131 572.89135545 60.74331147 576.94099355 62.09135675 C585.93219254 65.09216942 594.14584295 69.10580574 602.28230214 73.92363214 C606.75917215 76.54034619 611.18015418 78.39157318 616.06599355 80.1343255 C618.08017355 81.10544801 620.08618365 82.09492531 622.06599355 83.1343255 C622.06599355 83.7943255 622.06599355 84.4543255 622.06599355 85.1343255 C623.07661855 85.3612005 624.08724355 85.5880755 625.12849355 85.8218255 C628.65240458 86.82061865 631.11281922 88.52173037 634.0230248 90.7593255 C638.05336727 93.47190782 642.60786306 95.23982159 647.06599355 97.1343255 C647.06599355 97.7943255 647.06599355 98.4543255 647.06599355 99.1343255 C647.63189198 99.2374505 648.19779042 99.3405755 648.7808373 99.4468255 C651.4805326 100.25904153 653.32674047 101.5141406 655.62849355 103.1343255 C658.19474603 104.93459706 660.07129943 106.13609413 663.06599355 107.1343255 C664.06737572 108.13294142 665.06722432 109.13309625 666.06599355 110.1343255 C667.49914619 110.99045976 668.96016461 111.80108689 670.44099355 112.5718255 C673.96796664 114.47272658 677.0078497 116.52590869 680.06599355 119.1343255 C681.05599355 119.7943255 682.04599355 120.4543255 683.06599355 121.1343255 C683.06599355 121.7943255 683.06599355 122.4543255 683.06599355 123.1343255 C684.14880605 123.536513 684.14880605 123.536513 685.25349355 123.9468255 C690.58820066 126.19925739 693.99085934 129.0591913 698.06599355 133.1343255 C699.72547502 134.14620445 701.39179917 135.1469801 703.06599355 136.1343255 C704.39932688 137.46765884 705.73266021 138.80099217 707.06599355 140.1343255 C709.19908547 141.36944629 709.19908547 141.36944629 711.06599355 142.1343255 C711.06599355 142.7943255 711.06599355 143.4543255 711.06599355 144.1343255 C713.39813503 145.34060558 715.56241493 146.2997993 718.06599355 147.1343255 C719.75596678 148.77735503 721.41815749 150.44903862 723.06599355 152.1343255 C724.82914284 153.68387741 726.61770292 155.19797362 728.41755605 156.704638 C730.04463825 158.11580409 731.54371027 159.61204223 733.06599355 161.1343255 C733.84974355 161.7530755 734.63349355 162.3718255 735.44099355 163.0093255 C738.17669875 165.223944 740.57910776 167.64743972 743.06599355 170.1343255 C744.05599355 170.7943255 745.04599355 171.4543255 746.06599355 172.1343255 C746.06599355 173.1243255 746.06599355 174.1143255 746.06599355 175.1343255 C746.6486498 175.40116144 747.23130605 175.66799738 747.83161855 175.94291925 C755.01223195 179.77174284 761.17368173 186.74569491 766.06599355 193.1343255 C766.06599355 193.7943255 766.06599355 194.4543255 766.06599355 195.1343255 C767.05599355 195.1343255 768.04599355 195.1343255 769.06599355 195.1343255 C770.32813885 196.82825736 771.58149056 198.53049267 772.76130605 200.282763 C774.58458813 202.87029506 776.80281953 204.92258726 779.06599355 207.1343255 C785.05865026 213.55256436 790.64646475 220.2293584 796.06599355 227.1343255 C796.78142323 228.0005755 797.49685292 228.8668255 798.2339623 229.7593255 C800.06599355 232.1343255 800.06599355 232.1343255 801.06599355 234.8218255 C802.30152674 237.678996 803.33463237 237.85399995 806.06599355 239.1343255 C806.7508608 240.45840219 807.41469557 241.79341791 808.06599355 243.1343255 C808.87036855 243.9180755 809.67474355 244.7018255 810.50349355 245.5093255 C813.06599355 248.1343255 813.06599355 248.1343255 814.38630605 250.8687005 C816.34962148 254.68575097 818.78403295 257.71350433 821.50349355 261.0093255 C831.06599355 272.87139024 831.06599355 272.87139024 831.06599355 278.1343255 C832.05599355 278.4643255 833.04599355 278.7943255 834.06599355 279.1343255 C835.12002517 281.10638467 836.11249116 283.11174468 837.06599355 285.1343255 C838.28945444 286.98547503 839.54078857 288.81843361 840.81599355 290.6343255 C844.65102992 296.27740849 847.63292452 302.04296466 850.5230248 308.20073175 C851.83257383 311.0603977 851.83257383 311.0603977 853.5777123 312.59916925 C855.46919555 314.55022678 856.26898738 316.73148187 857.2754662 319.22514582 C858.59186053 322.40433162 860.19218032 325.44548519 861.75349355 328.5093255 C865.04109507 335.01701188 868.19367439 341.57805953 871.26692128 348.18950129 C873.03005748 351.97334488 874.86309525 355.69352689 876.81599355 359.3843255 C879.18509858 364.02808621 880.5190355 368.8353851 881.96443105 373.829638 C883.43973238 378.255542 885.52740627 382.23638439 887.6870873 386.360888 C889.24161032 389.48754903 890.33470741 392.59138158 891.3511498 395.923388 C892.1489058 398.39076448 893.12448407 400.74382675 894.12849355 403.1343255 C895.39566058 406.23555009 896.36650695 409.15973427 897.00349355 412.4468255 C897.76195278 416.30006926 899.03466343 419.74285083 900.50349355 423.3843255 C902.72666134 428.95202431 904.14281926 434.42859486 905.38630605 440.282763 C906.02068448 443.30260759 906.02068448 443.30260759 907.56599355 446.6343255 C909.84458197 451.95103181 910.84889148 457.49352555 912.06599355 463.1343255 C912.37691937 464.51488931 912.68948168 465.89508535 913.00349355 467.2749505 C914.99299019 476.04936755 916.83369927 484.84466648 918.56355214 493.67387629 C919.5016238 498.428549 920.51629707 503.15460424 921.61726308 507.8740716 C923.90117572 517.69249645 925.36825637 527.54145153 926.6895287 537.53007746 C927.08667652 540.27740282 927.5742576 543.00008964 928.06599355 545.73198175 C929.22452667 552.58927486 929.7586695 559.46917986 930.27064443 566.39692926 C930.57014998 570.44057613 930.88798705 574.48277199 931.20661855 578.5249505 C931.27353902 579.37599863 931.34045949 580.22704676 931.40940785 581.10388422 C932.37243529 593.18609466 933.54553767 605.24989662 934.70808339 617.31425714 C934.79076467 618.1824206 934.87344594 619.05058405 934.95863271 619.94505548 C935.10997038 621.53377409 935.26329667 623.12230572 935.41944814 624.71055841 C936.68665049 638.05260111 937.25157948 651.41963243 937.59236073 664.81181574 C937.61320194 665.6052939 937.63404315 666.39877205 937.65551591 667.216295 C937.81931973 673.47908013 937.9687607 679.74215268 938.11286855 686.00541925 C938.13498245 686.95993754 938.15709636 687.91445583 938.17988038 688.89789891 C939.43668281 743.67586029 939.37167737 798.46201071 939.32491618 853.25086467 C939.31598233 863.92728399 939.31763294 874.60365891 939.32673573 885.28007746 C939.37190114 939.84048855 939.39781287 994.39691133 938.17536855 1048.9468255 C938.1557522 1049.84965242 938.13613585 1050.75247933 938.11592507 1051.68266463 C937.46704214 1081.52971467 935.93080524 1111.1841885 932.52644277 1140.86039972 C931.47490834 1150.03367452 930.69927396 1159.16137001 930.19099355 1168.3843255 C929.46954384 1180.10024071 927.81497906 1191.33737761 925.49909902 1202.82866144 C924.8881731 1206.08096379 924.5044367 1209.34750824 924.12849355 1212.6343255 C923.23512353 1219.85307432 921.6192297 1226.84709513 919.95954823 1233.92436457 C918.36528499 1240.73364001 916.97731027 1247.5485857 915.7417748 1254.4312005 C914.21424047 1262.80173545 912.39790047 1270.99380551 910.12849355 1279.1968255 C909.75047597 1280.5899798 909.75047597 1280.5899798 909.36482167 1282.01127863 C907.96907471 1287.09808023 906.45187859 1292.1156923 904.75129628 1297.10869074 C903.79594068 1299.93255445 902.93048255 1302.78151179 902.06599355 1305.6343255 C900.71414264 1310.06653897 899.30969995 1314.46845723 897.77693105 1318.84135675 C897.16681334 1320.80915398 896.66571227 1322.81016978 896.1870873 1324.814013 C895.03681099 1329.48497963 893.43645786 1333.94465697 891.75349355 1338.4468255 C891.44081532 1339.29003351 891.1281371 1340.13324152 890.80598378 1341.00200129 C888.88320162 1346.12711666 886.7779539 1351.09880671 884.4214623 1356.0405755 C883.3053043 1358.58811767 882.31665885 1361.11681124 881.3667748 1363.7280755 C877.53211805 1374.26591919 873.23763807 1384.19033371 867.83503652 1394.0303216 C865.79492959 1397.75589453 863.88453368 1401.38270972 862.43318105 1405.38041925 C861.19578848 1408.77794572 859.77789418 1411.74395405 858.00349355 1414.8843255 C855.94186686 1418.53094059 855.94186686 1418.53094059 854.0698998 1422.2749505 C853.06599355 1424.1343255 853.06599355 1424.1343255 851.5777123 1425.57573175 C849.65300562 1427.56011926 848.91864364 1429.51463339 847.87849355 1432.0718255 C844.7419378 1439.24382798 840.63727978 1446.56303927 835.06599355 1452.1343255 C834.75661855 1452.9799505 834.44724355 1453.8255755 834.12849355 1454.6968255 C833.77786855 1455.5012005 833.42724355 1456.3055755 833.06599355 1457.1343255 C832.07599355 1457.4643255 831.08599355 1457.7943255 830.06599355 1458.1343255 C829.98736073 1458.82784113 829.90872792 1459.52135675 829.8277123 1460.235888 C828.87495621 1463.86124707 827.03984938 1466.51367755 824.87849355 1469.5093255 C824.47356679 1470.08368341 824.06864003 1470.65804132 823.65144277 1471.24980402 C821.04549769 1474.90319625 818.27200713 1478.31174685 815.27693105 1481.64604425 C813.42281759 1483.9248095 812.27560576 1486.47317864 811.06599355 1489.1343255 C810.40599355 1490.1243255 809.74599355 1491.1143255 809.06599355 1492.1343255 C808.40599355 1492.1343255 807.74599355 1492.1343255 807.06599355 1492.1343255 C806.81849355 1492.7118255 806.57099355 1493.2893255 806.31599355 1493.8843255 C805.06599355 1496.1343255 805.06599355 1496.1343255 803.12849355 1498.0093255 C800.72490506 1500.48575001 799.48652649 1503.00915304 798.06599355 1506.1343255 C797.40599355 1506.1343255 796.74599355 1506.1343255 796.06599355 1506.1343255 C795.88036855 1506.8149505 795.69474355 1507.4955755 795.50349355 1508.1968255 C793.8386453 1511.59890671 791.82164623 1513.47828491 789.1089623 1516.06791925 C786.83475627 1518.3682156 784.83879196 1520.79786698 782.81599355 1523.3218255 C765.3115938 1545.05245875 765.3115938 1545.05245875 759.06599355 1547.1343255 C758.36448203 1548.44965961 757.70073429 1549.78550142 757.06599355 1551.1343255 C755.56599355 1552.8843255 755.56599355 1552.8843255 754.06599355 1554.1343255 C753.40599355 1554.1343255 752.74599355 1554.1343255 752.06599355 1554.1343255 C751.83911855 1554.6912005 751.61224355 1555.2480755 751.37849355 1555.8218255 C745.65999669 1565.89727234 732.49301153 1574.94791344 723.58161855 1582.0874505 C720.4994902 1584.59526922 717.55289097 1587.23469606 714.6245873 1589.91948175 C713.06599355 1591.1343255 713.06599355 1591.1343255 711.06599355 1591.1343255 C711.06599355 1591.7943255 711.06599355 1592.4543255 711.06599355 1593.1343255 C710.17911855 1593.5262005 709.29224355 1593.9180755 708.37849355 1594.3218255 C704.93666127 1596.20509222 702.78428589 1598.3425658 700.06599355 1601.1343255 C699.07599355 1601.4643255 698.08599355 1601.7943255 697.06599355 1602.1343255 C697.06599355 1602.7943255 697.06599355 1603.4543255 697.06599355 1604.1343255 C694.02929107 1606.35630293 691.00964689 1608.16458575 687.69099355 1609.9468255 C684.87658488 1611.51722859 682.62932934 1613.33426457 680.25349355 1615.5093255 C675.59500379 1619.72198323 669.57335206 1625.1343255 663.06599355 1625.1343255 C662.83911855 1625.7530755 662.61224355 1626.3718255 662.37849355 1627.0093255 C660.65716835 1629.79623297 659.08381334 1629.9401311 656.06599355 1631.1343255 C654.34753569 1632.23318531 652.65984185 1633.38140516 651.00349355 1634.5718255 C650.16689198 1635.16866144 649.33029042 1635.76549738 648.4683373 1636.38041925 C646.97812553 1637.468395 645.50623155 1638.58257242 644.06599355 1639.735888 C641.13508467 1641.78523445 637.95026781 1642.77842542 634.6011498 1643.97416925 C631.67463077 1645.31342372 629.57030923 1647.12097749 627.06599355 1649.1343255 C625.02996493 1650.22682867 622.96600347 1651.26873073 620.87849355 1652.2593255 C616.64024372 1654.22602199 616.64024372 1654.22602199 613.06599355 1657.1343255 C611.56140564 1657.70037905 610.03631459 1658.21240725 608.50349355 1658.6968255 C603.46579064 1660.45416373 599.01464833 1662.73278254 594.37849355 1665.3218255 C586.42153972 1669.72149905 578.1773444 1672.9186859 569.61604238 1675.95146418 C563.98209459 1677.96160401 558.70081203 1680.23909299 553.38655019 1682.98295832 C550.01626084 1684.6551608 546.56125337 1685.92440962 543.00349355 1687.1343255 C542.28451894 1687.38359797 541.56554433 1687.63287043 540.82478261 1687.8896966 C533.61610601 1690.35367928 526.3144335 1692.47905853 518.99275136 1694.5771966 C512.44656314 1696.47005031 505.94812342 1698.52733766 499.4605248 1700.610888 C488.39402373 1704.15766041 477.40124907 1707.28694617 465.99446034 1709.54985285 C460.24217747 1710.69791164 454.49830466 1711.88705147 448.75349355 1713.0718255 C446.90981191 1713.44984308 446.90981191 1713.44984308 445.02888417 1713.83549738 C439.04343993 1715.07048878 433.07925515 1716.3533468 427.1323998 1717.76323175 C422.51229528 1718.84164317 418.0318527 1719.64008699 413.31599355 1720.1343255 C408.55653216 1720.66720906 403.88761222 1721.31282301 399.18113637 1722.21597528 C390.47293734 1723.88113162 381.83733387 1724.81304256 372.99839711 1725.41441584 C368.90622362 1725.69358142 364.81629495 1726.0028544 360.7261498 1726.31010675 C359.44111814 1726.40584986 359.44111814 1726.40584986 358.13012624 1726.50352716 C345.98705472 1727.42257242 333.86760097 1728.61136728 321.74616933 1729.77665949 C320.87879643 1729.85930552 320.01142354 1729.94195154 319.11776662 1730.02710199 C317.52865804 1730.17867186 315.93971455 1730.33199198 314.35101247 1730.48776484 C301.48588688 1731.71486534 288.61633231 1732.32839495 275.70051503 1732.66069269 C274.91699894 1732.6815339 274.13348285 1732.70237511 273.32622385 1732.72384787 C267.13427604 1732.88789471 260.94203133 1733.03722144 254.7495873 1733.1812005 C253.80543108 1733.20331441 252.86127486 1733.22542831 251.88850784 1733.24821234 C197.29203798 1734.51465591 142.68649272 1734.43983474 88.07891624 1734.39324814 C77.40279999 1734.38431828 66.72672816 1734.38596094 56.05061269 1734.39506769 C1.27077532 1734.44043995 -53.5043553 1734.45627368 -108.2738502 1733.23979425 C-109.18915531 1733.22005076 -110.10446042 1733.20030727 -111.04750204 1733.1799655 C-138.97369112 1732.57698387 -166.7151776 1731.21614948 -194.51609874 1728.37645197 C-198.43812482 1727.98370484 -202.36365116 1727.63124826 -206.2894752 1727.27885675 C-212.754077 1726.69562517 -219.2147517 1726.07855077 -225.67472911 1725.44584894 C-228.77420446 1725.14959946 -231.87464603 1724.87537585 -234.9769752 1724.610888 C-244.18529493 1723.81519659 -253.13641699 1722.68443914 -262.1957252 1720.845263 C-265.83525987 1720.1531049 -269.4419809 1719.6818929 -273.12150645 1719.2593255 C-280.25478704 1718.36390315 -287.11951036 1716.74819351 -294.09367442 1715.0237298 C-299.45685189 1713.70312153 -304.80738286 1712.53103238 -310.24650645 1711.5718255 C-316.34200445 1710.48157383 -322.29484666 1709.10013846 -328.28239512 1707.54204035 C-332.02832939 1706.57651225 -335.73757645 1705.78990249 -339.55900645 1705.1968255 C-345.20343501 1704.25183068 -350.37469725 1702.28606343 -355.72306895 1700.2905755 C-358.16756835 1699.41031781 -360.46953746 1698.68876596 -362.99650645 1698.1343255 C-366.59391215 1697.33319019 -369.88975659 1696.00361765 -373.30900645 1694.6343255 C-377.23488646 1693.07844679 -380.89379746 1691.82410534 -385.05900645 1691.1343255 C-389.88130454 1690.3136751 -393.88118997 1688.47490753 -398.26994395 1686.360888 C-400.70055646 1685.24180835 -403.07103425 1684.36939585 -405.62150645 1683.5718255 C-408.44555643 1682.68341611 -410.95531206 1681.66476054 -413.55900645 1680.2593255 C-417.23331173 1678.32777372 -420.97418854 1677.12124976 -424.93400645 1675.8843255 C-431.14381474 1673.91371951 -436.80870575 1671.36715276 -442.58244395 1668.36455011 C-448.9114043 1665.08453887 -455.389586 1662.1934145 -461.93278575 1659.36772394 C-466.64067759 1657.29951712 -470.97253381 1655.00687485 -475.26774669 1652.17412043 C-477.01799406 1651.01062233 -477.01799406 1651.01062233 -479.49650645 1650.1343255 C-481.77266777 1649.20051573 -483.24008633 1648.22727434 -485.18400645 1646.7593255 C-487.74639979 1644.85819496 -490.16824708 1643.5234229 -493.12150645 1642.3218255 C-498.21833145 1640.18725777 -502.56925096 1637.15543668 -507.11369395 1634.0405755 C-510.30585574 1631.88299247 -513.55382441 1629.97806117 -516.93400645 1628.1343255 C-516.93400645 1627.4743255 -516.93400645 1626.8143255 -516.93400645 1626.1343255 C-517.73838145 1625.9280755 -518.54275645 1625.7218255 -519.37150645 1625.5093255 C-527.51314515 1622.36693864 -534.23297004 1616.41418882 -541.1254127 1611.1812005 C-543.37532569 1609.54148645 -545.56292311 1608.09702459 -547.99650645 1606.7593255 C-550.53641971 1605.35426711 -552.01854817 1604.23220839 -553.93400645 1602.1343255 C-554.65588145 1601.6187005 -555.37775645 1601.1030755 -556.12150645 1600.5718255 C-557.01869395 1599.860263 -557.01869395 1599.860263 -557.93400645 1599.1343255 C-557.93400645 1598.4743255 -557.93400645 1597.8143255 -557.93400645 1597.1343255 C-558.65201427 1596.88940363 -559.37002208 1596.64448175 -560.1097877 1596.392138 C-563.28100189 1594.97978535 -565.47598491 1593.25235264 -568.12150645 1591.0093255 C-571.81142676 1587.9119835 -575.52178128 1584.86202422 -579.30900645 1581.8843255 C-582.7468999 1579.14374064 -585.86323651 1576.28590519 -588.93400645 1573.1343255 C-592.47403325 1569.91739639 -595.9499624 1566.79035487 -599.93400645 1564.1343255 C-599.93400645 1563.1443255 -599.93400645 1562.1543255 -599.93400645 1561.1343255 C-600.5166627 1560.86748957 -601.09931895 1560.60065363 -601.69963145 1560.32573175 C-608.88024486 1556.49690817 -615.04169464 1549.5229561 -619.93400645 1543.1343255 C-619.93400645 1542.4743255 -619.93400645 1541.8143255 -619.93400645 1541.1343255 C-620.80025645 1541.0724505 -620.80025645 1541.0724505 -621.68400645 1541.0093255 C-625.04288226 1539.70309602 -626.00696195 1537.11248519 -627.93400645 1534.1343255 C-629.59293828 1532.79138069 -631.2587725 1531.45687863 -632.93400645 1530.1343255 C-633.61771095 1528.80964804 -634.28364831 1527.47568918 -634.93400645 1526.1343255 C-636.57768786 1524.44498628 -638.24829405 1522.78172626 -639.93400645 1521.1343255 C-641.51491794 1519.3048186 -643.06448082 1517.45353867 -644.6019752 1515.5874505 C-645.89197555 1514.00653368 -645.89197555 1514.00653368 -647.93400645 1513.1343255 C-650.93400645 1508.6343255 -650.93400645 1508.6343255 -650.93400645 1506.1343255 C-651.92400645 1505.8043255 -652.91400645 1505.4743255 -653.93400645 1505.1343255 C-654.96012594 1503.48361155 -655.95708788 1501.81462544 -656.93400645 1500.1343255 C-657.63525645 1499.4330755 -658.33650645 1498.7318255 -659.05900645 1498.0093255 C-660.93400645 1496.1343255 -660.93400645 1496.1343255 -661.93400645 1493.1343255 C-662.69713145 1492.3918255 -663.46025645 1491.6493255 -664.24650645 1490.8843255 C-667.94286735 1487.10200272 -670.24908534 1483.18908884 -671.93400645 1478.1343255 C-672.92400645 1477.8043255 -673.91400645 1477.4743255 -674.93400645 1477.1343255 C-676.33112919 1475.17835367 -677.65328274 1473.1684161 -678.93400645 1471.1343255 C-679.80345837 1469.94275737 -680.67853899 1468.75527736 -681.55900645 1467.5718255 C-683.51785797 1464.8701679 -684.73956863 1462.25823981 -685.93400645 1459.1343255 C-686.59400645 1458.8043255 -687.25400645 1458.4743255 -687.93400645 1458.1343255 C-688.93400645 1456.1343255 -689.93400645 1454.1343255 -690.93400645 1452.1343255 C-692.22831008 1450.30137456 -693.56651003 1448.51739614 -694.9457252 1446.74760675 C-695.93400645 1445.1343255 -695.93400645 1445.1343255 -695.93400645 1442.1343255 C-696.59400645 1442.1343255 -697.25400645 1442.1343255 -697.93400645 1442.1343255 C-698.47670177 1441.01413019 -699.01939708 1439.89393488 -699.5785377 1438.73979425 C-700.30087307 1437.26698058 -701.02354707 1435.79433296 -701.74650645 1434.3218255 C-702.28114512 1433.21484308 -702.28114512 1433.21484308 -702.82658458 1432.08549738 C-703.35348887 1431.01718683 -703.35348887 1431.01718683 -703.8910377 1429.92729425 C-704.2104835 1429.2726922 -704.5299293 1428.61809015 -704.85905528 1427.94365168 C-705.87027026 1426.06219101 -705.87027026 1426.06219101 -707.51872325 1424.59648371 C-709.64291927 1422.40193309 -709.6059674 1420.08667695 -709.93400645 1417.1343255 C-710.59400645 1417.1343255 -711.25400645 1417.1343255 -711.93400645 1417.1343255 C-712.70750427 1415.6148456 -713.47765125 1414.09365984 -714.24650645 1412.5718255 C-714.67576427 1411.72491144 -715.10502208 1410.87799738 -715.5472877 1410.00541925 C-716.81829493 1407.37389725 -717.96720105 1404.70983818 -719.10612559 1402.01933527 C-720.61571987 1398.58212577 -722.31049865 1395.23757294 -723.99650645 1391.8843255 C-724.34777598 1391.17791925 -724.69904552 1390.471513 -725.06095958 1389.7437005 C-726.55882416 1386.75363434 -728.07667907 1383.92031658 -729.93400645 1381.1343255 C-730.61525351 1379.13924483 -731.27827854 1377.13793858 -731.93400645 1375.1343255 C-732.88499857 1372.67618069 -733.87014744 1370.233405 -734.8597877 1367.7905755 C-735.57447854 1366.02333999 -736.28026225 1364.25247552 -736.9769752 1362.4780755 C-738.38971404 1358.88398131 -739.80364458 1355.39003533 -741.55900645 1351.9468255 C-742.93400645 1349.1343255 -742.93400645 1349.1343255 -743.80900645 1345.9468255 C-744.78353557 1342.64425461 -745.9478782 1339.90706252 -747.43400645 1336.8218255 C-749.49284778 1332.42883268 -750.55490678 1328.48225498 -751.3441627 1323.72416925 C-752.03033273 1320.71138297 -753.13171551 1318.08840336 -754.37150645 1315.2593255 C-756.56218427 1310.25663727 -757.96643282 1305.3848741 -759.18400645 1300.0718255 C-759.93401005 1297.1343114 -760.90449488 1294.3982084 -761.99650645 1291.5718255 C-763.67366762 1287.12893063 -764.62340717 1282.87913785 -765.3754127 1278.20073175 C-766.04055195 1274.54944286 -766.94328311 1270.97523116 -767.87150645 1267.3843255 C-769.50151899 1261.04033164 -770.8459124 1254.68164728 -772.08244395 1248.24760675 C-772.87958519 1244.25695552 -773.84913833 1240.31510813 -774.82341075 1236.36455011 C-776.84592332 1228.16079311 -778.51447631 1220.15666987 -779.47306895 1211.75541925 C-779.87162192 1208.62441415 -780.41561099 1205.56514137 -781.03483653 1202.47172785 C-782.85251071 1193.25106138 -783.50807399 1184.07025996 -784.0941627 1174.69926691 C-784.82998858 1163.47643875 -786.07803168 1152.34182738 -787.43766856 1141.17973566 C-790.07003868 1119.43707578 -791.35352183 1097.77381948 -791.99650645 1075.8843255 C-792.0747432 1073.41425628 -792.15351855 1070.94420406 -792.23283458 1068.47416925 C-792.41651888 1062.65374168 -792.58409047 1056.83303252 -792.74372476 1051.01188833 C-792.84702048 1047.25306799 -792.95215842 1043.49433043 -793.06305194 1039.73572588 C-793.97359252 1008.62543243 -794.08418686 977.52529603 -794.06930635 946.40362622 C-794.0669861 941.41418421 -794.06675162 936.42474561 -794.06782222 931.43530321 C-794.06797545 930.71281163 -794.06812868 929.99032006 -794.06828656 929.2459348 C-794.06860643 927.77613394 -794.06893065 926.30633308 -794.06925915 924.83653223 C-794.07208027 911.19825092 -794.06888078 897.55997643 -794.06345879 883.92169624 C-794.05899483 872.33656339 -794.05976997 860.75144059 -794.06437755 849.16630793 C-794.0697855 835.56326825 -794.07180491 821.96023449 -794.06876528 808.35719389 C-794.06844689 806.89385045 -794.06813251 805.43050701 -794.06782222 803.96716356 C-794.06766794 803.24802193 -794.06751367 802.52888029 -794.06735472 801.78794648 C-794.06650792 796.83178052 -794.06793074 791.8756185 -794.07030177 786.91945314 C-794.08375724 756.12755851 -793.92486614 725.35984109 -793.05738711 694.57880354 C-792.89756687 688.89996526 -792.76264859 683.22057806 -792.62727141 677.54111338 C-791.83092275 645.15199465 -790.29238129 612.99847359 -786.12666392 580.85432673 C-785.1390401 573.22095846 -784.51178352 565.62786507 -784.05900645 557.9468255 C-783.38175992 547.68194905 -781.97491669 537.8338876 -779.8676002 527.7749505 C-779.02567263 523.74355486 -778.4617455 519.72842911 -777.99650645 515.6343255 C-777.02070416 507.66087794 -775.0940758 499.96353462 -773.15275645 492.17729425 C-772.11559184 487.98484623 -771.23452571 483.77728098 -770.40763927 479.53886652 C-764.43032337 449.19320456 -764.43032337 449.19320456 -759.0082252 435.1343255 C-757.34181624 430.48049974 -756.01946105 425.72853143 -754.68425059 420.97050714 C-753.69361011 417.49140991 -752.56411562 414.35220335 -750.93400645 411.1343255 C-750.61862307 409.62210262 -750.35053384 408.09951369 -750.12150645 406.5718255 C-749.19712552 401.60782709 -747.41592904 397.4736797 -745.23088145 392.94291925 C-743.53036289 389.26016972 -742.22173862 385.48291202 -740.92619395 381.642138 C-739.93400645 379.1343255 -739.93400645 379.1343255 -738.4379127 376.704638 C-736.74688828 373.81452353 -735.90253913 371.10404679 -734.99650645 367.8843255 C-732.89012343 360.80719769 -730.47219719 354.3961275 -726.43400645 348.1968255 C-724.10444077 344.60364692 -722.61322149 340.96554233 -721.0941627 336.97416925 C-717.44843428 328.05011349 -712.72811146 319.48420581 -707.93400645 311.1343255 C-707.37713145 310.1237005 -706.82025645 309.1130755 -706.24650645 308.0718255 C-705.81338145 307.4324505 -705.38025645 306.7930755 -704.93400645 306.1343255 C-704.27400645 306.1343255 -703.61400645 306.1343255 -702.93400645 306.1343255 C-702.72775645 305.2062005 -702.52150645 304.2780755 -702.30900645 303.3218255 C-700.4592318 296.76718924 -696.68779894 290.76501423 -692.93400645 285.1343255 C-692.27400645 285.1343255 -691.61400645 285.1343255 -690.93400645 285.1343255 C-690.66459239 284.41116144 -690.39517833 283.68799738 -690.1176002 282.94291925 C-688.94819018 280.1679826 -687.58316779 277.75244033 -685.99650645 275.1968255 C-684.27459333 272.38826817 -682.70048557 269.65863483 -681.24650645 266.6968255 C-680.0253882 264.31273749 -679.03404209 262.77783166 -676.93400645 261.1343255 C-676.27400645 261.1343255 -675.61400645 261.1343255 -674.93400645 261.1343255 C-674.81927989 260.55166925 -674.70455333 259.969013 -674.5863502 259.3687005 C-673.88576583 256.96909416 -672.95208051 255.40571618 -671.49650645 253.3843255 C-671.06467052 252.77073175 -670.63283458 252.157138 -670.1879127 251.5249505 C-669.77412364 251.06604425 -669.36033458 250.607138 -668.93400645 250.1343255 C-668.27400645 250.1343255 -667.61400645 250.1343255 -666.93400645 250.1343255 C-666.85150645 249.3918255 -666.76900645 248.6493255 -666.68400645 247.8843255 C-665.78209837 244.57732919 -664.39886837 243.44980185 -661.93400645 241.1343255 C-661.62463145 240.4949505 -661.31525645 239.8555755 -660.99650645 239.1968255 C-659.50193714 236.29560273 -657.25943799 234.4030392 -654.93400645 232.1343255 C-654.37713145 231.3712005 -653.82025645 230.6080755 -653.24650645 229.8218255 C-652.81338145 229.2649505 -652.38025645 228.7080755 -651.93400645 228.1343255 C-651.27400645 228.1343255 -650.61400645 228.1343255 -649.93400645 228.1343255 C-649.81847423 227.53958429 -649.702942 226.94484308 -649.5839088 226.33207941 C-648.52901577 222.76478151 -645.95883342 220.26604981 -643.55900645 217.5093255 C-642.81650645 216.63147394 -642.81650645 216.63147394 -642.05900645 215.735888 C-639.81269366 213.1171918 -637.82018811 211.05844661 -634.93400645 209.1343255 C-634.43900645 208.2887005 -633.94400645 207.4430755 -633.43400645 206.5718255 C-631.93400645 204.1343255 -631.93400645 204.1343255 -628.93400645 203.1343255 C-628.23742282 201.47993938 -627.57303762 199.81178233 -626.93400645 198.1343255 C-624.92984807 195.69448052 -624.02028781 195.16308596 -620.93400645 194.1343255 C-619.54295406 192.32305936 -618.21930471 190.45960732 -616.93400645 188.5718255 C-613.10129966 183.14686042 -608.96473155 179.54705217 -603.31681895 175.95073175 C-600.67245549 173.93494649 -599.51666584 172.02563161 -597.93400645 169.1343255 C-594.52021335 166.1343255 -594.52021335 166.1343255 -591.93400645 166.1343255 C-591.59369395 165.237138 -591.59369395 165.237138 -591.24650645 164.3218255 C-589.57501008 161.53599822 -587.72836606 160.75895318 -584.93400645 159.1343255 C-583.7835732 158.01676178 -582.63643963 156.89503887 -581.5238502 155.73979425 C-579.34220741 153.53671025 -577.08559408 151.4265952 -574.80900645 149.3218255 C-573.96080333 148.53163019 -573.1126002 147.74143488 -572.23869395 146.92729425 C-569.93400645 145.1343255 -569.93400645 145.1343255 -566.93400645 145.1343255 C-566.72775645 144.5568255 -566.52150645 143.9793255 -566.30900645 143.3843255 C-564.43326908 140.31493707 -561.94806382 139.04117813 -558.93400645 137.1343255 C-558.39775645 136.5980755 -557.86150645 136.0618255 -557.30900645 135.5093255 C-555.93400645 134.1343255 -555.93400645 134.1343255 -553.93400645 133.1968255 C-551.76883372 132.23930607 -551.76883372 132.23930607 -550.43400645 130.0093255 C-549.93900645 129.3905755 -549.44400645 128.7718255 -548.93400645 128.1343255 C-547.61400645 128.1343255 -546.29400645 128.1343255 -544.93400645 128.1343255 C-544.93400645 127.4743255 -544.93400645 126.8143255 -544.93400645 126.1343255 C-543.2894752 124.626513 -543.2894752 124.626513 -541.12150645 123.0093255 C-540.05996348 122.20108332 -540.05996348 122.20108332 -538.9769752 121.376513 C-536.93400645 120.1343255 -536.93400645 120.1343255 -533.93400645 120.1343255 C-533.93400645 119.4743255 -533.93400645 118.8143255 -533.93400645 118.1343255 C-529.82566889 114.13410208 -525.49526393 111.7907372 -520.34025645 109.3374505 C-518.23683408 108.28573932 -516.36004668 107.16250056 -514.43400645 105.8218255 C-511.93400645 104.1343255 -511.93400645 104.1343255 -509.93400645 104.1343255 C-509.93400645 103.4743255 -509.93400645 102.8143255 -509.93400645 102.1343255 C-507.9222877 100.73198175 -507.9222877 100.73198175 -505.24650645 99.1968255 C-504.37638927 98.69280207 -503.50627208 98.18877863 -502.6097877 97.66948175 C-501.72677989 97.16288019 -500.84377208 96.65627863 -499.93400645 96.1343255 C-499.06775645 95.59034113 -498.20150645 95.04635675 -497.30900645 94.485888 C-494.52229878 92.90003134 -492.09784441 92.50221364 -488.93400645 92.1343255 C-488.93400645 91.4743255 -488.93400645 90.8143255 -488.93400645 90.1343255 C-488.40033458 89.84299738 -487.8666627 89.55166925 -487.31681895 89.251513 C-483.12842858 86.94717366 -479.00449818 84.57919736 -474.93400645 82.0718255 C-470.40709334 79.33754208 -465.79759733 77.18981982 -460.93400645 75.1343255 C-455.68387868 72.8331084 -450.51230411 70.52828512 -445.55900645 67.6343255 C-439.29205743 64.05642642 -432.47704428 61.77908085 -425.7113502 59.329638 C-420.88790686 57.5666546 -416.26082465 55.47727881 -411.59806895 53.32573175 C-408.7324369 52.04418076 -405.84106972 50.94101887 -402.88713145 49.8843255 C-400.71975281 49.05205211 -398.65543379 48.06872801 -396.55900645 47.0718255 C-393.44830426 45.66220577 -390.60897184 44.78016647 -387.24650645 44.1968255 C-381.83003402 43.24539583 -376.88628339 41.40510735 -371.73869395 39.501513 C-366.39979978 37.54812233 -360.96100104 35.91505078 -355.52775645 34.24760675 C-353.3495546 33.5728377 -351.17951749 32.86964591 -349.02775645 32.11479425 C-345.04510752 30.85261637 -341.01748095 30.00275289 -336.93400645 29.1343255 C-335.44530889 28.80285642 -333.95702056 28.46954364 -332.4691627 28.1343255 C-330.97827729 27.80099217 -329.48739187 27.46765884 -327.99650645 27.1343255 C-327.26238536 26.9693255 -326.52826427 26.8043255 -325.77189708 26.6343255 C-321.89952358 25.77004685 -318.02461215 24.95148253 -314.12931895 24.1968255 C-309.35643641 23.25285028 -304.64792707 22.1038625 -299.92790294 20.92656183 C-290.85080107 18.66616773 -281.95144387 16.59332429 -272.6410377 15.60331964 C-268.86414443 15.12548693 -265.18838111 14.42774087 -261.45744395 13.673388 C-253.54501199 12.13701855 -245.65769996 11.32795319 -237.62150645 10.6968255 C-234.74594093 10.45714951 -231.87113035 10.20924431 -228.99650645 9.95854425 C-227.89450152 9.86280115 -227.89450152 9.86280115 -226.77023387 9.76512384 C-216.74475242 8.87566191 -206.75286069 7.67816483 -196.75895762 6.49199152 C-196.05766734 6.40934549 -195.35637706 6.32669947 -194.63383555 6.24154902 C-192.75079644 6.01909416 -190.8681406 5.79340135 -188.98552012 5.56743097 C-178.39932991 4.39228794 -167.79458693 3.84507805 -157.1566627 3.4155755 C-155.62251456 3.35223784 -154.08837058 3.28879937 -152.55423045 3.22526789 C-149.33103799 3.09244647 -146.10777194 2.96161698 -142.88444591 2.83207941 C-139.68476729 2.70329042 -136.48523645 2.57155183 -133.28581309 2.4365716 C-88.85763159 0.56249892 -44.46601036 -0.02238554 0 0 Z " fill="#F3F2F6" transform="translate(926.9340064525604,131.86567449569702)"/>
<path d="M0 0 C4.03138901 0.00153704 8.06277417 0.00142889 12.09416318 0.00050974 C12.77417591 0.00035651 13.45418865 0.00020327 14.15480782 0.0000454 C15.53843915 -0.00027449 16.92207048 -0.00059871 18.3057018 -0.00092719 C31.12713501 -0.00374444 43.94856094 -0.00055516 56.76999296 0.00487317 C67.6472279 0.0093367 78.52445215 0.00856156 89.40168691 0.00395441 C102.19172076 -0.00146079 114.98174833 -0.00346906 127.77178317 -0.00043333 C129.1491915 -0.00011495 130.52659982 0.00019943 131.90400815 0.00050974 C132.58081673 0.00066401 133.25762532 0.00081829 133.95494325 0.00097724 C138.60612208 0.00182193 143.25729663 0.00037291 147.90847516 -0.00196981 C192.46988108 -0.0213405 236.9771219 0.65451469 281.50349355 2.4468255 C282.28730523 2.47793798 283.07111691 2.50905046 283.87868047 2.54110575 C309.69890495 3.56802769 335.32452916 5.13191324 360.94123769 8.66948175 C368.67165901 9.73365565 376.3433487 10.50788338 384.12849355 11.0093255 C395.20136056 11.80433512 405.9083389 13.5416585 416.78620839 15.70122004 C419.72132833 16.25882367 422.66805151 16.67279288 425.62849355 17.0718255 C432.34655151 18.05430829 438.89003429 19.70580118 445.47932363 21.31547785 C450.7305239 22.59473187 455.95839982 23.71378833 461.2886498 24.61479425 C467.19447552 25.71954084 473.02778225 27.18546042 478.86530995 28.60209894 C481.01779004 29.12266768 483.17253526 29.63286842 485.3277123 30.142138 C492.28010687 31.80724509 499.01468253 33.70251608 505.69880605 36.27104425 C508.36969369 37.24508084 511.07757989 37.87543428 513.84724355 38.50541925 C516.80105902 39.34268033 519.59162372 40.49258035 522.44099355 41.6343255 C526.38980372 43.20109678 530.06229733 44.44789337 534.25349355 45.1343255 C538.87489285 45.91824623 542.44990065 47.70551865 546.55818105 49.907763 C549.83842983 51.51212144 553.17850576 52.41637114 556.6870873 53.38823175 C559.71256872 54.33711016 562.39676584 55.68269037 565.1948998 57.157763 C568.98165978 59.13415131 572.89135545 60.74331147 576.94099355 62.09135675 C585.93219254 65.09216942 594.14584295 69.10580574 602.28230214 73.92363214 C606.75917215 76.54034619 611.18015418 78.39157318 616.06599355 80.1343255 C618.08017355 81.10544801 620.08618365 82.09492531 622.06599355 83.1343255 C622.06599355 83.7943255 622.06599355 84.4543255 622.06599355 85.1343255 C623.07661855 85.3612005 624.08724355 85.5880755 625.12849355 85.8218255 C628.65240458 86.82061865 631.11281922 88.52173037 634.0230248 90.7593255 C638.05336727 93.47190782 642.60786306 95.23982159 647.06599355 97.1343255 C647.06599355 97.7943255 647.06599355 98.4543255 647.06599355 99.1343255 C647.63189198 99.2374505 648.19779042 99.3405755 648.7808373 99.4468255 C651.4805326 100.25904153 653.32674047 101.5141406 655.62849355 103.1343255 C658.19474603 104.93459706 660.07129943 106.13609413 663.06599355 107.1343255 C664.06737572 108.13294142 665.06722432 109.13309625 666.06599355 110.1343255 C667.49914619 110.99045976 668.96016461 111.80108689 670.44099355 112.5718255 C673.96796664 114.47272658 677.0078497 116.52590869 680.06599355 119.1343255 C681.05599355 119.7943255 682.04599355 120.4543255 683.06599355 121.1343255 C683.06599355 121.7943255 683.06599355 122.4543255 683.06599355 123.1343255 C684.14880605 123.536513 684.14880605 123.536513 685.25349355 123.9468255 C690.58820066 126.19925739 693.99085934 129.0591913 698.06599355 133.1343255 C699.72547502 134.14620445 701.39179917 135.1469801 703.06599355 136.1343255 C704.39932688 137.46765884 705.73266021 138.80099217 707.06599355 140.1343255 C709.19908547 141.36944629 709.19908547 141.36944629 711.06599355 142.1343255 C711.06599355 142.7943255 711.06599355 143.4543255 711.06599355 144.1343255 C713.39813503 145.34060558 715.56241493 146.2997993 718.06599355 147.1343255 C719.75596678 148.77735503 721.41815749 150.44903862 723.06599355 152.1343255 C724.82914284 153.68387741 726.61770292 155.19797362 728.41755605 156.704638 C730.04463825 158.11580409 731.54371027 159.61204223 733.06599355 161.1343255 C733.84974355 161.7530755 734.63349355 162.3718255 735.44099355 163.0093255 C738.17669875 165.223944 740.57910776 167.64743972 743.06599355 170.1343255 C744.05599355 170.7943255 745.04599355 171.4543255 746.06599355 172.1343255 C746.06599355 173.1243255 746.06599355 174.1143255 746.06599355 175.1343255 C746.6486498 175.40116144 747.23130605 175.66799738 747.83161855 175.94291925 C755.01223195 179.77174284 761.17368173 186.74569491 766.06599355 193.1343255 C766.06599355 193.7943255 766.06599355 194.4543255 766.06599355 195.1343255 C767.05599355 195.1343255 768.04599355 195.1343255 769.06599355 195.1343255 C770.32813885 196.82825736 771.58149056 198.53049267 772.76130605 200.282763 C774.58458813 202.87029506 776.80281953 204.92258726 779.06599355 207.1343255 C785.05865026 213.55256436 790.64646475 220.2293584 796.06599355 227.1343255 C796.78142323 228.0005755 797.49685292 228.8668255 798.2339623 229.7593255 C800.06599355 232.1343255 800.06599355 232.1343255 801.06599355 234.8218255 C802.30152674 237.678996 803.33463237 237.85399995 806.06599355 239.1343255 C806.7508608 240.45840219 807.41469557 241.79341791 808.06599355 243.1343255 C808.87036855 243.9180755 809.67474355 244.7018255 810.50349355 245.5093255 C813.06599355 248.1343255 813.06599355 248.1343255 814.38630605 250.8687005 C816.34962148 254.68575097 818.78403295 257.71350433 821.50349355 261.0093255 C831.06599355 272.87139024 831.06599355 272.87139024 831.06599355 278.1343255 C832.05599355 278.4643255 833.04599355 278.7943255 834.06599355 279.1343255 C835.12002517 281.10638467 836.11249116 283.11174468 837.06599355 285.1343255 C838.28945444 286.98547503 839.54078857 288.81843361 840.81599355 290.6343255 C844.65102992 296.27740849 847.63292452 302.04296466 850.5230248 308.20073175 C851.83257383 311.0603977 851.83257383 311.0603977 853.5777123 312.59916925 C855.46919555 314.55022678 856.26898738 316.73148187 857.2754662 319.22514582 C858.59186053 322.40433162 860.19218032 325.44548519 861.75349355 328.5093255 C865.04109507 335.01701188 868.19367439 341.57805953 871.26692128 348.18950129 C873.03005748 351.97334488 874.86309525 355.69352689 876.81599355 359.3843255 C879.18509858 364.02808621 880.5190355 368.8353851 881.96443105 373.829638 C883.43973238 378.255542 885.52740627 382.23638439 887.6870873 386.360888 C889.24161032 389.48754903 890.33470741 392.59138158 891.3511498 395.923388 C892.1489058 398.39076448 893.12448407 400.74382675 894.12849355 403.1343255 C895.39566058 406.23555009 896.36650695 409.15973427 897.00349355 412.4468255 C897.76195278 416.30006926 899.03466343 419.74285083 900.50349355 423.3843255 C902.72666134 428.95202431 904.14281926 434.42859486 905.38630605 440.282763 C906.02068448 443.30260759 906.02068448 443.30260759 907.56599355 446.6343255 C909.84458197 451.95103181 910.84889148 457.49352555 912.06599355 463.1343255 C912.37691937 464.51488931 912.68948168 465.89508535 913.00349355 467.2749505 C914.99299019 476.04936755 916.83369927 484.84466648 918.56355214 493.67387629 C919.5016238 498.428549 920.51629707 503.15460424 921.61726308 507.8740716 C923.90117572 517.69249645 925.36825637 527.54145153 926.6895287 537.53007746 C927.08667652 540.27740282 927.5742576 543.00008964 928.06599355 545.73198175 C929.22452667 552.58927486 929.7586695 559.46917986 930.27064443 566.39692926 C930.57014998 570.44057613 930.88798705 574.48277199 931.20661855 578.5249505 C931.27353902 579.37599863 931.34045949 580.22704676 931.40940785 581.10388422 C932.37243529 593.18609466 933.54553767 605.24989662 934.70808339 617.31425714 C934.79076467 618.1824206 934.87344594 619.05058405 934.95863271 619.94505548 C935.10997038 621.53377409 935.26329667 623.12230572 935.41944814 624.71055841 C936.68665049 638.05260111 937.25157948 651.41963243 937.59236073 664.81181574 C937.61320194 665.6052939 937.63404315 666.39877205 937.65551591 667.216295 C937.81931973 673.47908013 937.9687607 679.74215268 938.11286855 686.00541925 C938.13498245 686.95993754 938.15709636 687.91445583 938.17988038 688.89789891 C939.43668281 743.67586029 939.37167737 798.46201071 939.32491618 853.25086467 C939.31598233 863.92728399 939.31763294 874.60365891 939.32673573 885.28007746 C939.37190114 939.84048855 939.39781287 994.39691133 938.17536855 1048.9468255 C938.1557522 1049.84965242 938.13613585 1050.75247933 938.11592507 1051.68266463 C937.46704214 1081.52971467 935.93080524 1111.1841885 932.52644277 1140.86039972 C931.47490834 1150.03367452 930.69927396 1159.16137001 930.19099355 1168.3843255 C929.46954384 1180.10024071 927.81497906 1191.33737761 925.49909902 1202.82866144 C924.8881731 1206.08096379 924.5044367 1209.34750824 924.12849355 1212.6343255 C923.23512353 1219.85307432 921.6192297 1226.84709513 919.95954823 1233.92436457 C918.36528499 1240.73364001 916.97731027 1247.5485857 915.7417748 1254.4312005 C914.21424047 1262.80173545 912.39790047 1270.99380551 910.12849355 1279.1968255 C909.75047597 1280.5899798 909.75047597 1280.5899798 909.36482167 1282.01127863 C907.96907471 1287.09808023 906.45187859 1292.1156923 904.75129628 1297.10869074 C903.79594068 1299.93255445 902.93048255 1302.78151179 902.06599355 1305.6343255 C900.71414264 1310.06653897 899.30969995 1314.46845723 897.77693105 1318.84135675 C897.16681334 1320.80915398 896.66571227 1322.81016978 896.1870873 1324.814013 C895.03681099 1329.48497963 893.43645786 1333.94465697 891.75349355 1338.4468255 C891.44081532 1339.29003351 891.1281371 1340.13324152 890.80598378 1341.00200129 C888.88320162 1346.12711666 886.7779539 1351.09880671 884.4214623 1356.0405755 C883.3053043 1358.58811767 882.31665885 1361.11681124 881.3667748 1363.7280755 C877.53211805 1374.26591919 873.23763807 1384.19033371 867.83503652 1394.0303216 C865.79492959 1397.75589453 863.88453368 1401.38270972 862.43318105 1405.38041925 C861.19578848 1408.77794572 859.77789418 1411.74395405 858.00349355 1414.8843255 C855.94186686 1418.53094059 855.94186686 1418.53094059 854.0698998 1422.2749505 C853.06599355 1424.1343255 853.06599355 1424.1343255 851.5777123 1425.57573175 C849.65300562 1427.56011926 848.91864364 1429.51463339 847.87849355 1432.0718255 C844.7419378 1439.24382798 840.63727978 1446.56303927 835.06599355 1452.1343255 C834.75661855 1452.9799505 834.44724355 1453.8255755 834.12849355 1454.6968255 C833.77786855 1455.5012005 833.42724355 1456.3055755 833.06599355 1457.1343255 C832.07599355 1457.4643255 831.08599355 1457.7943255 830.06599355 1458.1343255 C829.98736073 1458.82784113 829.90872792 1459.52135675 829.8277123 1460.235888 C828.87495621 1463.86124707 827.03984938 1466.51367755 824.87849355 1469.5093255 C824.47356679 1470.08368341 824.06864003 1470.65804132 823.65144277 1471.24980402 C821.04549769 1474.90319625 818.27200713 1478.31174685 815.27693105 1481.64604425 C813.42281759 1483.9248095 812.27560576 1486.47317864 811.06599355 1489.1343255 C810.40599355 1490.1243255 809.74599355 1491.1143255 809.06599355 1492.1343255 C808.40599355 1492.1343255 807.74599355 1492.1343255 807.06599355 1492.1343255 C806.81849355 1492.7118255 806.57099355 1493.2893255 806.31599355 1493.8843255 C805.06599355 1496.1343255 805.06599355 1496.1343255 803.12849355 1498.0093255 C800.72490506 1500.48575001 799.48652649 1503.00915304 798.06599355 1506.1343255 C797.40599355 1506.1343255 796.74599355 1506.1343255 796.06599355 1506.1343255 C795.88036855 1506.8149505 795.69474355 1507.4955755 795.50349355 1508.1968255 C793.8386453 1511.59890671 791.82164623 1513.47828491 789.1089623 1516.06791925 C786.83475627 1518.3682156 784.83879196 1520.79786698 782.81599355 1523.3218255 C765.3115938 1545.05245875 765.3115938 1545.05245875 759.06599355 1547.1343255 C758.36448203 1548.44965961 757.70073429 1549.78550142 757.06599355 1551.1343255 C755.56599355 1552.8843255 755.56599355 1552.8843255 754.06599355 1554.1343255 C753.40599355 1554.1343255 752.74599355 1554.1343255 752.06599355 1554.1343255 C751.83911855 1554.6912005 751.61224355 1555.2480755 751.37849355 1555.8218255 C745.65999669 1565.89727234 732.49301153 1574.94791344 723.58161855 1582.0874505 C720.4994902 1584.59526922 717.55289097 1587.23469606 714.6245873 1589.91948175 C713.06599355 1591.1343255 713.06599355 1591.1343255 711.06599355 1591.1343255 C711.06599355 1591.7943255 711.06599355 1592.4543255 711.06599355 1593.1343255 C710.17911855 1593.5262005 709.29224355 1593.9180755 708.37849355 1594.3218255 C704.93666127 1596.20509222 702.78428589 1598.3425658 700.06599355 1601.1343255 C699.07599355 1601.4643255 698.08599355 1601.7943255 697.06599355 1602.1343255 C697.06599355 1602.7943255 697.06599355 1603.4543255 697.06599355 1604.1343255 C694.02929107 1606.35630293 691.00964689 1608.16458575 687.69099355 1609.9468255 C684.87658488 1611.51722859 682.62932934 1613.33426457 680.25349355 1615.5093255 C675.59500379 1619.72198323 669.57335206 1625.1343255 663.06599355 1625.1343255 C662.83911855 1625.7530755 662.61224355 1626.3718255 662.37849355 1627.0093255 C660.65716835 1629.79623297 659.08381334 1629.9401311 656.06599355 1631.1343255 C654.34753569 1632.23318531 652.65984185 1633.38140516 651.00349355 1634.5718255 C650.16689198 1635.16866144 649.33029042 1635.76549738 648.4683373 1636.38041925 C646.97812553 1637.468395 645.50623155 1638.58257242 644.06599355 1639.735888 C641.13508467 1641.78523445 637.95026781 1642.77842542 634.6011498 1643.97416925 C631.67463077 1645.31342372 629.57030923 1647.12097749 627.06599355 1649.1343255 C625.02996493 1650.22682867 622.96600347 1651.26873073 620.87849355 1652.2593255 C616.64024372 1654.22602199 616.64024372 1654.22602199 613.06599355 1657.1343255 C611.56140564 1657.70037905 610.03631459 1658.21240725 608.50349355 1658.6968255 C603.46579064 1660.45416373 599.01464833 1662.73278254 594.37849355 1665.3218255 C586.42153972 1669.72149905 578.1773444 1672.9186859 569.61604238 1675.95146418 C563.98209459 1677.96160401 558.70081203 1680.23909299 553.38655019 1682.98295832 C550.01626084 1684.6551608 546.56125337 1685.92440962 543.00349355 1687.1343255 C542.28451894 1687.38359797 541.56554433 1687.63287043 540.82478261 1687.8896966 C533.61610601 1690.35367928 526.3144335 1692.47905853 518.99275136 1694.5771966 C512.44656314 1696.47005031 505.94812342 1698.52733766 499.4605248 1700.610888 C488.39402373 1704.15766041 477.40124907 1707.28694617 465.99446034 1709.54985285 C460.24217747 1710.69791164 454.49830466 1711.88705147 448.75349355 1713.0718255 C446.90981191 1713.44984308 446.90981191 1713.44984308 445.02888417 1713.83549738 C439.04343993 1715.07048878 433.07925515 1716.3533468 427.1323998 1717.76323175 C422.51229528 1718.84164317 418.0318527 1719.64008699 413.31599355 1720.1343255 C408.55653216 1720.66720906 403.88761222 1721.31282301 399.18113637 1722.21597528 C390.47293734 1723.88113162 381.83733387 1724.81304256 372.99839711 1725.41441584 C368.90622362 1725.69358142 364.81629495 1726.0028544 360.7261498 1726.31010675 C359.44111814 1726.40584986 359.44111814 1726.40584986 358.13012624 1726.50352716 C345.98705472 1727.42257242 333.86760097 1728.61136728 321.74616933 1729.77665949 C320.87879643 1729.85930552 320.01142354 1729.94195154 319.11776662 1730.02710199 C317.52865804 1730.17867186 315.93971455 1730.33199198 314.35101247 1730.48776484 C301.48588688 1731.71486534 288.61633231 1732.32839495 275.70051503 1732.66069269 C274.91699894 1732.6815339 274.13348285 1732.70237511 273.32622385 1732.72384787 C267.13427604 1732.88789471 260.94203133 1733.03722144 254.7495873 1733.1812005 C253.80543108 1733.20331441 252.86127486 1733.22542831 251.88850784 1733.24821234 C197.29203798 1734.51465591 142.68649272 1734.43983474 88.07891624 1734.39324814 C77.40279999 1734.38431828 66.72672816 1734.38596094 56.05061269 1734.39506769 C1.27077532 1734.44043995 -53.5043553 1734.45627368 -108.2738502 1733.23979425 C-109.18915531 1733.22005076 -110.10446042 1733.20030727 -111.04750204 1733.1799655 C-138.97369112 1732.57698387 -166.7151776 1731.21614948 -194.51609874 1728.37645197 C-198.43812482 1727.98370484 -202.36365116 1727.63124826 -206.2894752 1727.27885675 C-212.754077 1726.69562517 -219.2147517 1726.07855077 -225.67472911 1725.44584894 C-228.77420446 1725.14959946 -231.87464603 1724.87537585 -234.9769752 1724.610888 C-244.18529493 1723.81519659 -253.13641699 1722.68443914 -262.1957252 1720.845263 C-265.83525987 1720.1531049 -269.4419809 1719.6818929 -273.12150645 1719.2593255 C-280.25478704 1718.36390315 -287.11951036 1716.74819351 -294.09367442 1715.0237298 C-299.45685189 1713.70312153 -304.80738286 1712.53103238 -310.24650645 1711.5718255 C-316.34200445 1710.48157383 -322.29484666 1709.10013846 -328.28239512 1707.54204035 C-332.02832939 1706.57651225 -335.73757645 1705.78990249 -339.55900645 1705.1968255 C-345.20343501 1704.25183068 -350.37469725 1702.28606343 -355.72306895 1700.2905755 C-358.16756835 1699.41031781 -360.46953746 1698.68876596 -362.99650645 1698.1343255 C-366.59391215 1697.33319019 -369.88975659 1696.00361765 -373.30900645 1694.6343255 C-377.23488646 1693.07844679 -380.89379746 1691.82410534 -385.05900645 1691.1343255 C-389.88130454 1690.3136751 -393.88118997 1688.47490753 -398.26994395 1686.360888 C-400.70055646 1685.24180835 -403.07103425 1684.36939585 -405.62150645 1683.5718255 C-408.44555643 1682.68341611 -410.95531206 1681.66476054 -413.55900645 1680.2593255 C-417.23331173 1678.32777372 -420.97418854 1677.12124976 -424.93400645 1675.8843255 C-431.14381474 1673.91371951 -436.80870575 1671.36715276 -442.58244395 1668.36455011 C-448.9114043 1665.08453887 -455.389586 1662.1934145 -461.93278575 1659.36772394 C-466.64067759 1657.29951712 -470.97253381 1655.00687485 -475.26774669 1652.17412043 C-477.01799406 1651.01062233 -477.01799406 1651.01062233 -479.49650645 1650.1343255 C-481.77266777 1649.20051573 -483.24008633 1648.22727434 -485.18400645 1646.7593255 C-487.74639979 1644.85819496 -490.16824708 1643.5234229 -493.12150645 1642.3218255 C-498.21833145 1640.18725777 -502.56925096 1637.15543668 -507.11369395 1634.0405755 C-510.30585574 1631.88299247 -513.55382441 1629.97806117 -516.93400645 1628.1343255 C-516.93400645 1627.4743255 -516.93400645 1626.8143255 -516.93400645 1626.1343255 C-517.73838145 1625.9280755 -518.54275645 1625.7218255 -519.37150645 1625.5093255 C-527.51314515 1622.36693864 -534.23297004 1616.41418882 -541.1254127 1611.1812005 C-543.37532569 1609.54148645 -545.56292311 1608.09702459 -547.99650645 1606.7593255 C-550.53641971 1605.35426711 -552.01854817 1604.23220839 -553.93400645 1602.1343255 C-554.65588145 1601.6187005 -555.37775645 1601.1030755 -556.12150645 1600.5718255 C-557.01869395 1599.860263 -557.01869395 1599.860263 -557.93400645 1599.1343255 C-557.93400645 1598.4743255 -557.93400645 1597.8143255 -557.93400645 1597.1343255 C-558.65201427 1596.88940363 -559.37002208 1596.64448175 -560.1097877 1596.392138 C-563.28100189 1594.97978535 -565.47598491 1593.25235264 -568.12150645 1591.0093255 C-571.81142676 1587.9119835 -575.52178128 1584.86202422 -579.30900645 1581.8843255 C-582.7468999 1579.14374064 -585.86323651 1576.28590519 -588.93400645 1573.1343255 C-592.47403325 1569.91739639 -595.9499624 1566.79035487 -599.93400645 1564.1343255 C-599.93400645 1563.1443255 -599.93400645 1562.1543255 -599.93400645 1561.1343255 C-600.5166627 1560.86748957 -601.09931895 1560.60065363 -601.69963145 1560.32573175 C-608.88024486 1556.49690817 -615.04169464 1549.5229561 -619.93400645 1543.1343255 C-619.93400645 1542.4743255 -619.93400645 1541.8143255 -619.93400645 1541.1343255 C-620.80025645 1541.0724505 -620.80025645 1541.0724505 -621.68400645 1541.0093255 C-625.04288226 1539.70309602 -626.00696195 1537.11248519 -627.93400645 1534.1343255 C-629.59293828 1532.79138069 -631.2587725 1531.45687863 -632.93400645 1530.1343255 C-633.61771095 1528.80964804 -634.28364831 1527.47568918 -634.93400645 1526.1343255 C-636.57768786 1524.44498628 -638.24829405 1522.78172626 -639.93400645 1521.1343255 C-641.51491794 1519.3048186 -643.06448082 1517.45353867 -644.6019752 1515.5874505 C-645.89197555 1514.00653368 -645.89197555 1514.00653368 -647.93400645 1513.1343255 C-650.93400645 1508.6343255 -650.93400645 1508.6343255 -650.93400645 1506.1343255 C-651.92400645 1505.8043255 -652.91400645 1505.4743255 -653.93400645 1505.1343255 C-654.96012594 1503.48361155 -655.95708788 1501.81462544 -656.93400645 1500.1343255 C-657.63525645 1499.4330755 -658.33650645 1498.7318255 -659.05900645 1498.0093255 C-660.93400645 1496.1343255 -660.93400645 1496.1343255 -661.93400645 1493.1343255 C-662.69713145 1492.3918255 -663.46025645 1491.6493255 -664.24650645 1490.8843255 C-667.94286735 1487.10200272 -670.24908534 1483.18908884 -671.93400645 1478.1343255 C-672.92400645 1477.8043255 -673.91400645 1477.4743255 -674.93400645 1477.1343255 C-676.33112919 1475.17835367 -677.65328274 1473.1684161 -678.93400645 1471.1343255 C-679.80345837 1469.94275737 -680.67853899 1468.75527736 -681.55900645 1467.5718255 C-683.51785797 1464.8701679 -684.73956863 1462.25823981 -685.93400645 1459.1343255 C-686.59400645 1458.8043255 -687.25400645 1458.4743255 -687.93400645 1458.1343255 C-688.93400645 1456.1343255 -689.93400645 1454.1343255 -690.93400645 1452.1343255 C-692.22831008 1450.30137456 -693.56651003 1448.51739614 -694.9457252 1446.74760675 C-695.93400645 1445.1343255 -695.93400645 1445.1343255 -695.93400645 1442.1343255 C-696.59400645 1442.1343255 -697.25400645 1442.1343255 -697.93400645 1442.1343255 C-698.47670177 1441.01413019 -699.01939708 1439.89393488 -699.5785377 1438.73979425 C-700.30087307 1437.26698058 -701.02354707 1435.79433296 -701.74650645 1434.3218255 C-702.28114512 1433.21484308 -702.28114512 1433.21484308 -702.82658458 1432.08549738 C-703.35348887 1431.01718683 -703.35348887 1431.01718683 -703.8910377 1429.92729425 C-704.2104835 1429.2726922 -704.5299293 1428.61809015 -704.85905528 1427.94365168 C-705.87027026 1426.06219101 -705.87027026 1426.06219101 -707.51872325 1424.59648371 C-709.64291927 1422.40193309 -709.6059674 1420.08667695 -709.93400645 1417.1343255 C-710.59400645 1417.1343255 -711.25400645 1417.1343255 -711.93400645 1417.1343255 C-712.70750427 1415.6148456 -713.47765125 1414.09365984 -714.24650645 1412.5718255 C-714.67576427 1411.72491144 -715.10502208 1410.87799738 -715.5472877 1410.00541925 C-716.81829493 1407.37389725 -717.96720105 1404.70983818 -719.10612559 1402.01933527 C-720.61571987 1398.58212577 -722.31049865 1395.23757294 -723.99650645 1391.8843255 C-724.34777598 1391.17791925 -724.69904552 1390.471513 -725.06095958 1389.7437005 C-726.55882416 1386.75363434 -728.07667907 1383.92031658 -729.93400645 1381.1343255 C-730.61525351 1379.13924483 -731.27827854 1377.13793858 -731.93400645 1375.1343255 C-732.88499857 1372.67618069 -733.87014744 1370.233405 -734.8597877 1367.7905755 C-735.57447854 1366.02333999 -736.28026225 1364.25247552 -736.9769752 1362.4780755 C-738.38971404 1358.88398131 -739.80364458 1355.39003533 -741.55900645 1351.9468255 C-742.93400645 1349.1343255 -742.93400645 1349.1343255 -743.80900645 1345.9468255 C-744.78353557 1342.64425461 -745.9478782 1339.90706252 -747.43400645 1336.8218255 C-749.49284778 1332.42883268 -750.55490678 1328.48225498 -751.3441627 1323.72416925 C-752.03033273 1320.71138297 -753.13171551 1318.08840336 -754.37150645 1315.2593255 C-756.56218427 1310.25663727 -757.96643282 1305.3848741 -759.18400645 1300.0718255 C-759.93401005 1297.1343114 -760.90449488 1294.3982084 -761.99650645 1291.5718255 C-763.67366762 1287.12893063 -764.62340717 1282.87913785 -765.3754127 1278.20073175 C-766.04055195 1274.54944286 -766.94328311 1270.97523116 -767.87150645 1267.3843255 C-769.50151899 1261.04033164 -770.8459124 1254.68164728 -772.08244395 1248.24760675 C-772.87958519 1244.25695552 -773.84913833 1240.31510813 -774.82341075 1236.36455011 C-776.84592332 1228.16079311 -778.51447631 1220.15666987 -779.47306895 1211.75541925 C-779.87162192 1208.62441415 -780.41561099 1205.56514137 -781.03483653 1202.47172785 C-782.85251071 1193.25106138 -783.50807399 1184.07025996 -784.0941627 1174.69926691 C-784.82998858 1163.47643875 -786.07803168 1152.34182738 -787.43766856 1141.17973566 C-790.07003868 1119.43707578 -791.35352183 1097.77381948 -791.99650645 1075.8843255 C-792.0747432 1073.41425628 -792.15351855 1070.94420406 -792.23283458 1068.47416925 C-792.41651888 1062.65374168 -792.58409047 1056.83303252 -792.74372476 1051.01188833 C-792.84702048 1047.25306799 -792.95215842 1043.49433043 -793.06305194 1039.73572588 C-793.97359252 1008.62543243 -794.08418686 977.52529603 -794.06930635 946.40362622 C-794.0669861 941.41418421 -794.06675162 936.42474561 -794.06782222 931.43530321 C-794.06797545 930.71281163 -794.06812868 929.99032006 -794.06828656 929.2459348 C-794.06860643 927.77613394 -794.06893065 926.30633308 -794.06925915 924.83653223 C-794.07208027 911.19825092 -794.06888078 897.55997643 -794.06345879 883.92169624 C-794.05899483 872.33656339 -794.05976997 860.75144059 -794.06437755 849.16630793 C-794.0697855 835.56326825 -794.07180491 821.96023449 -794.06876528 808.35719389 C-794.06844689 806.89385045 -794.06813251 805.43050701 -794.06782222 803.96716356 C-794.06766794 803.24802193 -794.06751367 802.52888029 -794.06735472 801.78794648 C-794.06650792 796.83178052 -794.06793074 791.8756185 -794.07030177 786.91945314 C-794.08375724 756.12755851 -793.92486614 725.35984109 -793.05738711 694.57880354 C-792.89756687 688.89996526 -792.76264859 683.22057806 -792.62727141 677.54111338 C-791.83092275 645.15199465 -790.29238129 612.99847359 -786.12666392 580.85432673 C-785.1390401 573.22095846 -784.51178352 565.62786507 -784.05900645 557.9468255 C-783.38175992 547.68194905 -781.97491669 537.8338876 -779.8676002 527.7749505 C-779.02567263 523.74355486 -778.4617455 519.72842911 -777.99650645 515.6343255 C-777.02070416 507.66087794 -775.0940758 499.96353462 -773.15275645 492.17729425 C-772.11559184 487.98484623 -771.23452571 483.77728098 -770.40763927 479.53886652 C-764.43032337 449.19320456 -764.43032337 449.19320456 -759.0082252 435.1343255 C-757.34181624 430.48049974 -756.01946105 425.72853143 -754.68425059 420.97050714 C-753.69361011 417.49140991 -752.56411562 414.35220335 -750.93400645 411.1343255 C-750.61862307 409.62210262 -750.35053384 408.09951369 -750.12150645 406.5718255 C-749.19712552 401.60782709 -747.41592904 397.4736797 -745.23088145 392.94291925 C-743.53036289 389.26016972 -742.22173862 385.48291202 -740.92619395 381.642138 C-739.93400645 379.1343255 -739.93400645 379.1343255 -738.4379127 376.704638 C-736.74688828 373.81452353 -735.90253913 371.10404679 -734.99650645 367.8843255 C-732.89012343 360.80719769 -730.47219719 354.3961275 -726.43400645 348.1968255 C-724.10444077 344.60364692 -722.61322149 340.96554233 -721.0941627 336.97416925 C-717.44843428 328.05011349 -712.72811146 319.48420581 -707.93400645 311.1343255 C-707.37713145 310.1237005 -706.82025645 309.1130755 -706.24650645 308.0718255 C-705.81338145 307.4324505 -705.38025645 306.7930755 -704.93400645 306.1343255 C-704.27400645 306.1343255 -703.61400645 306.1343255 -702.93400645 306.1343255 C-702.72775645 305.2062005 -702.52150645 304.2780755 -702.30900645 303.3218255 C-700.4592318 296.76718924 -696.68779894 290.76501423 -692.93400645 285.1343255 C-692.27400645 285.1343255 -691.61400645 285.1343255 -690.93400645 285.1343255 C-690.66459239 284.41116144 -690.39517833 283.68799738 -690.1176002 282.94291925 C-688.94819018 280.1679826 -687.58316779 277.75244033 -685.99650645 275.1968255 C-684.27459333 272.38826817 -682.70048557 269.65863483 -681.24650645 266.6968255 C-680.0253882 264.31273749 -679.03404209 262.77783166 -676.93400645 261.1343255 C-676.27400645 261.1343255 -675.61400645 261.1343255 -674.93400645 261.1343255 C-674.81927989 260.55166925 -674.70455333 259.969013 -674.5863502 259.3687005 C-673.88576583 256.96909416 -672.95208051 255.40571618 -671.49650645 253.3843255 C-671.06467052 252.77073175 -670.63283458 252.157138 -670.1879127 251.5249505 C-669.77412364 251.06604425 -669.36033458 250.607138 -668.93400645 250.1343255 C-668.27400645 250.1343255 -667.61400645 250.1343255 -666.93400645 250.1343255 C-666.85150645 249.3918255 -666.76900645 248.6493255 -666.68400645 247.8843255 C-665.78209837 244.57732919 -664.39886837 243.44980185 -661.93400645 241.1343255 C-661.62463145 240.4949505 -661.31525645 239.8555755 -660.99650645 239.1968255 C-659.50193714 236.29560273 -657.25943799 234.4030392 -654.93400645 232.1343255 C-654.37713145 231.3712005 -653.82025645 230.6080755 -653.24650645 229.8218255 C-652.81338145 229.2649505 -652.38025645 228.7080755 -651.93400645 228.1343255 C-651.27400645 228.1343255 -650.61400645 228.1343255 -649.93400645 228.1343255 C-649.81847423 227.53958429 -649.702942 226.94484308 -649.5839088 226.33207941 C-648.52901577 222.76478151 -645.95883342 220.26604981 -643.55900645 217.5093255 C-642.81650645 216.63147394 -642.81650645 216.63147394 -642.05900645 215.735888 C-639.81269366 213.1171918 -637.82018811 211.05844661 -634.93400645 209.1343255 C-634.43900645 208.2887005 -633.94400645 207.4430755 -633.43400645 206.5718255 C-631.93400645 204.1343255 -631.93400645 204.1343255 -628.93400645 203.1343255 C-628.23742282 201.47993938 -627.57303762 199.81178233 -626.93400645 198.1343255 C-624.92984807 195.69448052 -624.02028781 195.16308596 -620.93400645 194.1343255 C-619.54295406 192.32305936 -618.21930471 190.45960732 -616.93400645 188.5718255 C-613.10129966 183.14686042 -608.96473155 179.54705217 -603.31681895 175.95073175 C-600.67245549 173.93494649 -599.51666584 172.02563161 -597.93400645 169.1343255 C-594.52021335 166.1343255 -594.52021335 166.1343255 -591.93400645 166.1343255 C-591.59369395 165.237138 -591.59369395 165.237138 -591.24650645 164.3218255 C-589.57501008 161.53599822 -587.72836606 160.75895318 -584.93400645 159.1343255 C-583.7835732 158.01676178 -582.63643963 156.89503887 -581.5238502 155.73979425 C-579.34220741 153.53671025 -577.08559408 151.4265952 -574.80900645 149.3218255 C-573.96080333 148.53163019 -573.1126002 147.74143488 -572.23869395 146.92729425 C-569.93400645 145.1343255 -569.93400645 145.1343255 -566.93400645 145.1343255 C-566.72775645 144.5568255 -566.52150645 143.9793255 -566.30900645 143.3843255 C-564.43326908 140.31493707 -561.94806382 139.04117813 -558.93400645 137.1343255 C-558.39775645 136.5980755 -557.86150645 136.0618255 -557.30900645 135.5093255 C-555.93400645 134.1343255 -555.93400645 134.1343255 -553.93400645 133.1968255 C-551.76883372 132.23930607 -551.76883372 132.23930607 -550.43400645 130.0093255 C-549.93900645 129.3905755 -549.44400645 128.7718255 -548.93400645 128.1343255 C-547.61400645 128.1343255 -546.29400645 128.1343255 -544.93400645 128.1343255 C-544.93400645 127.4743255 -544.93400645 126.8143255 -544.93400645 126.1343255 C-543.2894752 124.626513 -543.2894752 124.626513 -541.12150645 123.0093255 C-540.05996348 122.20108332 -540.05996348 122.20108332 -538.9769752 121.376513 C-536.93400645 120.1343255 -536.93400645 120.1343255 -533.93400645 120.1343255 C-533.93400645 119.4743255 -533.93400645 118.8143255 -533.93400645 118.1343255 C-529.82566889 114.13410208 -525.49526393 111.7907372 -520.34025645 109.3374505 C-518.23683408 108.28573932 -516.36004668 107.16250056 -514.43400645 105.8218255 C-511.93400645 104.1343255 -511.93400645 104.1343255 -509.93400645 104.1343255 C-509.93400645 103.4743255 -509.93400645 102.8143255 -509.93400645 102.1343255 C-507.9222877 100.73198175 -507.9222877 100.73198175 -505.24650645 99.1968255 C-504.37638927 98.69280207 -503.50627208 98.18877863 -502.6097877 97.66948175 C-501.72677989 97.16288019 -500.84377208 96.65627863 -499.93400645 96.1343255 C-499.06775645 95.59034113 -498.20150645 95.04635675 -497.30900645 94.485888 C-494.52229878 92.90003134 -492.09784441 92.50221364 -488.93400645 92.1343255 C-488.93400645 91.4743255 -488.93400645 90.8143255 -488.93400645 90.1343255 C-488.40033458 89.84299738 -487.8666627 89.55166925 -487.31681895 89.251513 C-483.12842858 86.94717366 -479.00449818 84.57919736 -474.93400645 82.0718255 C-470.40709334 79.33754208 -465.79759733 77.18981982 -460.93400645 75.1343255 C-455.68387868 72.8331084 -450.51230411 70.52828512 -445.55900645 67.6343255 C-439.29205743 64.05642642 -432.47704428 61.77908085 -425.7113502 59.329638 C-420.88790686 57.5666546 -416.26082465 55.47727881 -411.59806895 53.32573175 C-408.7324369 52.04418076 -405.84106972 50.94101887 -402.88713145 49.8843255 C-400.71975281 49.05205211 -398.65543379 48.06872801 -396.55900645 47.0718255 C-393.44830426 45.66220577 -390.60897184 44.78016647 -387.24650645 44.1968255 C-381.83003402 43.24539583 -376.88628339 41.40510735 -371.73869395 39.501513 C-366.39979978 37.54812233 -360.96100104 35.91505078 -355.52775645 34.24760675 C-353.3495546 33.5728377 -351.17951749 32.86964591 -349.02775645 32.11479425 C-345.04510752 30.85261637 -341.01748095 30.00275289 -336.93400645 29.1343255 C-335.44530889 28.80285642 -333.95702056 28.46954364 -332.4691627 28.1343255 C-330.97827729 27.80099217 -329.48739187 27.46765884 -327.99650645 27.1343255 C-327.26238536 26.9693255 -326.52826427 26.8043255 -325.77189708 26.6343255 C-321.89952358 25.77004685 -318.02461215 24.95148253 -314.12931895 24.1968255 C-309.35643641 23.25285028 -304.64792707 22.1038625 -299.92790294 20.92656183 C-290.85080107 18.66616773 -281.95144387 16.59332429 -272.6410377 15.60331964 C-268.86414443 15.12548693 -265.18838111 14.42774087 -261.45744395 13.673388 C-253.54501199 12.13701855 -245.65769996 11.32795319 -237.62150645 10.6968255 C-234.74594093 10.45714951 -231.87113035 10.20924431 -228.99650645 9.95854425 C-227.89450152 9.86280115 -227.89450152 9.86280115 -226.77023387 9.76512384 C-216.74475242 8.87566191 -206.75286069 7.67816483 -196.75895762 6.49199152 C-196.05766734 6.40934549 -195.35637706 6.32669947 -194.63383555 6.24154902 C-192.75079644 6.01909416 -190.8681406 5.79340135 -188.98552012 5.56743097 C-178.39932991 4.39228794 -167.79458693 3.84507805 -157.1566627 3.4155755 C-155.62251456 3.35223784 -154.08837058 3.28879937 -152.55423045 3.22526789 C-149.33103799 3.09244647 -146.10777194 2.96161698 -142.88444591 2.83207941 C-139.68476729 2.70329042 -136.48523645 2.57155183 -133.28581309 2.4365716 C-88.85763159 0.56249892 -44.46601036 -0.02238554 0 0 Z M-452.68400645 280.6968255 C-453.55952159 281.55920832 -454.43503673 282.42159113 -455.33708262 283.31010675 C-461.30528314 289.27096909 -466.67219052 295.54777783 -471.93400645 302.1343255 C-472.79762703 303.16168029 -473.66602389 304.18508316 -474.54338145 305.20073175 C-531.52560696 371.64533412 -559.11442862 459.84725222 -559.07444835 546.44471979 C-559.07703593 548.69851231 -559.08005018 550.95230438 -559.08345175 553.20609581 C-559.0914792 559.37215158 -559.09330894 565.53819568 -559.09404922 571.70425606 C-559.09571619 577.6807642 -559.1020395 583.65726705 -559.10812763 589.63377192 C-559.12413878 605.63406332 -559.13008598 621.6343537 -559.13487638 637.63465167 C-559.13721789 645.21660255 -559.14082121 652.79855268 -559.14457175 660.38050298 C-559.15740483 686.37643759 -559.16812271 712.37237179 -559.17157435 738.3683095 C-559.17179598 739.99828616 -559.17201776 741.62826282 -559.17223971 743.25823949 C-559.17246034 744.89197519 -559.17268082 746.52571089 -559.17290115 748.1594466 C-559.17334368 751.43655467 -559.17379081 754.71366274 -559.17424083 757.99077082 C-559.17435022 758.80329476 -559.17445961 759.6158187 -559.17457232 760.45296458 C-559.17819806 786.76323505 -559.19410109 813.07347789 -559.21743119 839.38373779 C-559.24209879 867.25375537 -559.25575046 895.12375717 -559.25694227 922.99378598 C-559.2571137 926.06101442 -559.25732912 929.12824285 -559.2575767 932.19547129 C-559.25763247 932.95061236 -559.25768824 933.70575343 -559.2577457 934.48377757 C-559.25889032 946.57011079 -559.26986199 958.65641538 -559.28446376 970.74273898 C-559.29892267 982.92272983 -559.30201334 995.10268448 -559.29402378 1007.28268157 C-559.28999502 1013.86483635 -559.2909111 1020.44691625 -559.30508113 1027.02906466 C-559.43891976 1093.10702553 -551.66019312 1155.87040824 -522.93400645 1216.1343255 C-522.50732677 1217.03457453 -522.08064708 1217.93482355 -521.6410377 1218.86235285 C-506.0531134 1251.50706355 -485.42416068 1281.00694012 -461.1097877 1307.73979425 C-459.63897518 1309.35848021 -458.1782549 1310.98638521 -456.7269752 1312.62260675 C-448.97043108 1321.35720898 -440.84304279 1329.57657158 -431.93400645 1337.1343255 C-431.04842052 1337.90905207 -430.16283458 1338.68377863 -429.2504127 1339.48198175 C-369.86115068 1391.09859507 -293.54284573 1424.09357034 -214.93400645 1430.1343255 C-213.89398976 1430.21654315 -212.85397307 1430.29876079 -211.78244072 1430.38346988 C-200.042035 1431.21718579 -188.34331081 1431.27744957 -176.57724071 1431.26803827 C-174.34290754 1431.26990962 -172.1085747 1431.27221161 -169.87424237 1431.2749036 C-163.77146022 1431.28098814 -157.66869184 1431.28089196 -151.56590736 1431.27970922 C-145.64790871 1431.27952544 -139.72991401 1431.2840255 -133.81191732 1431.28832211 C-120.22159111 1431.2979641 -106.6312687 1431.30080519 -93.04093947 1431.30137917 C-82.53811932 1431.30183983 -72.03530063 1431.30390399 -61.53248096 1431.30707979 C-58.50225228 1431.30797743 -55.47202361 1431.30886725 -52.44179493 1431.30975467 C-51.31159036 1431.31008624 -51.31159036 1431.31008624 -50.15855337 1431.31042451 C-28.98023818 1431.31657404 -7.80192351 1431.32052556 13.3763926 1431.32008123 C14.17394857 1431.32006566 14.97150454 1431.32005008 15.79322887 1431.32003403 C19.83496691 1431.31995093 23.87670496 1431.31985189 27.918443 1431.31974932 C28.72104948 1431.31972937 29.52365595 1431.31970943 30.35058383 1431.31968888 C31.97364953 1431.31964844 33.59671524 1431.31960664 35.21978094 1431.31956349 C60.45099495 1431.31895124 85.6821955 1431.32644985 110.91340566 1431.34013605 C139.30608354 1431.35553104 167.69875258 1431.36410019 196.0914349 1431.36317283 C199.12512147 1431.36309821 202.15880805 1431.3630495 205.19249463 1431.36301851 C205.93938091 1431.36300686 206.6862672 1431.3629952 207.4557864 1431.3629832 C219.4221112 1431.36295255 231.38842423 1431.36931063 243.35474554 1431.37795078 C255.40445697 1431.38647051 267.45415136 1431.38738368 279.50386415 1431.38084146 C286.01856475 1431.37749416 292.53323168 1431.37745988 299.04792905 1431.38619471 C343.26984997 1431.56890535 343.26984997 1431.56890535 387.19099355 1426.8843255 C388.17884847 1426.7247587 388.17884847 1426.7247587 389.18666005 1426.56196833 C448.07858969 1417.01294371 504.1606104 1393.73078384 552.06599355 1358.1343255 C552.60820546 1357.73246027 553.15041738 1357.33059504 553.70905995 1356.91655207 C575.7904763 1340.46321211 597.97373247 1321.5091591 614.98005605 1299.77885675 C616.89987931 1297.34492352 618.89865459 1295.00108241 620.93513417 1292.66459894 C676.83628734 1228.18455594 705.48579467 1140.0368657 705.32668996 1055.49966669 C705.32971788 1053.18748367 705.33361054 1050.87530166 705.33828253 1048.56312138 C705.34848894 1042.26832447 705.34639963 1035.97358499 705.34210193 1029.67878354 C705.33987668 1023.56824804 705.34706478 1017.45772934 705.35386219 1011.34719843 C705.36903721 997.3219901 705.37081393 983.29679993 705.36833916 969.2715851 C705.36650057 958.43374659 705.36827794 947.59591397 705.3725636 936.75807619 C705.37316602 935.19641142 705.37376722 933.63474664 705.3743672 932.07308187 C705.37527454 929.71926767 705.37618321 927.36545348 705.37709955 925.01163929 C705.38551948 903.14921125 705.38987148 881.28678542 705.38569283 859.42435598 C705.38553646 858.60156383 705.38538008 857.77877168 705.38521897 856.93104643 C705.38441329 852.76161259 705.38356751 848.59217875 705.38270567 844.42274492 C705.38253458 843.59480843 705.38236349 842.76687194 705.38218722 841.91384647 C705.38184056 840.23956042 705.38149203 838.56527437 705.38114163 836.89098832 C705.37578738 810.85335359 705.38371038 784.81575274 705.40217519 758.77812433 C705.42293811 729.46614987 705.43360966 700.15419639 705.4295997 670.84221417 C705.42920441 667.71057117 705.42884286 664.57892818 705.42850232 661.44728518 C705.42841159 660.67630211 705.42832086 659.90531904 705.42822738 659.11097285 C705.42706631 647.52324278 705.43367218 635.93553406 705.44431424 624.34780931 C705.45642116 611.15230225 705.45786251 597.95684188 705.44552407 584.76133405 C705.43951874 578.03987574 705.43845573 571.31851957 705.45052648 564.59706163 C705.68643947 527.25080369 705.68643947 527.25080369 702.06599355 490.1343255 C701.84869018 488.63337806 701.63202306 487.13233827 701.41617227 485.63118124 C700.92722219 482.365861 700.36657971 479.12836786 699.75349355 475.8843255 C699.5403954 474.73560968 699.32729726 473.58689386 699.10774159 472.40336847 C692.35695676 436.95136413 680.73282734 403.05779045 664.05476308 371.04252863 C663.04104084 369.08616986 662.05090769 367.11899701 661.0620873 365.1499505 C651.84786411 347.02534077 640.61187352 330.11139343 628.06599355 314.1343255 C627.37247792 313.23971613 626.6789623 312.34510675 625.96443105 311.423388 C608.33345755 289.00375504 588.63507122 267.65425642 566.06599355 250.1343255 C565.47979238 249.670263 564.8935912 249.2062005 564.28962636 248.7280755 C546.88227303 234.94981704 528.46197063 222.91510958 509.06599355 212.1343255 C508.39777577 211.75501886 507.729558 211.37571222 507.0410912 210.98491144 C471.21143122 190.67696433 430.64109499 177.92990591 390.12849355 171.3218255 C388.93425771 171.12677423 387.74002187 170.93172297 386.50959706 170.73076105 C367.8146054 167.85333922 349.29974083 166.83811297 330.40009999 166.87362909 C328.08450487 166.87060119 325.76891075 166.86670854 323.45331836 166.86203653 C317.14905052 166.85182985 310.84484002 166.8539195 304.54056764 166.85821712 C298.42084193 166.86044234 292.301133 166.8532543 286.18141187 166.84645687 C272.13476113 166.83128143 258.08812853 166.82950518 244.0414713 166.83197989 C233.18647891 166.83381853 222.33149241 166.83204102 211.47650075 166.82775545 C209.91232422 166.82715303 208.34814769 166.82655183 206.78397116 166.82595185 C204.42635925 166.82504451 202.06874734 166.82413583 199.71113544 166.8232195 C177.81298494 166.81479943 155.91483666 166.81044764 134.01668477 166.81462622 C133.19253498 166.81478259 132.36838518 166.81493897 131.51926115 166.81510008 C127.34295872 166.81590576 123.1666563 166.81675154 118.99035388 166.81761339 C118.16105565 166.81778447 117.33175742 166.81795556 116.47732893 166.81813183 C114.80028873 166.81847849 113.12324852 166.81882702 111.44620832 166.81917742 C85.3682848 166.82453115 59.29039513 166.81661021 33.21247792 166.79814386 C3.8539821 166.77737838 -25.50449277 166.76670992 -54.86299634 166.77071935 C-57.9999934 166.77111464 -61.13699046 166.7714762 -64.27398753 166.77181673 C-65.04628633 166.77190746 -65.81858512 166.77199819 -66.61428691 166.77209168 C-78.21939904 166.77325251 -89.82448985 166.76664862 -101.42959666 166.75600481 C-114.64630183 166.7438946 -127.86296038 166.74246021 -141.07966632 166.75479498 C-147.8113748 166.76079811 -154.54298133 166.76186928 -161.27468944 166.74979258 C-264.07080658 166.57825499 -362.00699916 194.33860646 -452.68400645 280.6968255 Z " fill="#000000" transform="translate(926.9340064525604,131.86567449569702)"/>
<path d="M0 0 C0.56960449 0.46664062 1.13920898 0.93328125 1.72607422 1.4140625 C14.01103859 11.55381792 25.27636173 22.34092376 35 35 C35.4316748 35.56058105 35.86334961 36.12116211 36.30810547 36.69873047 C71.8169639 83.09848477 87.82863005 140.97366851 80.4375 199 C73.87311723 245.78919543 53.6185999 287.96721009 21 322 C20.44715332 322.58539551 19.89430664 323.17079102 19.32470703 323.77392578 C-18.36620273 363.53725991 -71.9632438 387.52127847 -126.70849609 389.25421143 C-145.51697323 389.74065402 -163.56999352 389.12928702 -182 385 C-183.50865255 384.6943253 -185.01774873 384.39082947 -186.52734375 384.08984375 C-220.70575913 376.98900012 -252.80387768 359.8219689 -279 337 C-279.91910156 336.20980469 -280.83820313 335.41960937 -281.78515625 334.60546875 C-284.23731852 332.44865408 -286.62847454 330.24509518 -289 328 C-290.42892578 326.65035156 -290.42892578 326.65035156 -291.88671875 325.2734375 C-299.36850489 318.07254987 -305.79920025 310.31528397 -312 302 C-312.63784424 301.16130371 -312.63784424 301.16130371 -313.28857422 300.30566406 C-328.09685301 280.80041103 -338.38573338 258.71055432 -345.9375 235.5 C-346.31527588 234.34322754 -346.69305176 233.18645508 -347.08227539 231.99462891 C-349.10026441 225.58107949 -350.62792657 219.29338161 -351.6015625 212.63867188 C-351.99059668 210.06227397 -352.50720419 207.5451058 -353.0625 205 C-358.18775341 179.54091502 -356.88314825 149.11635508 -351 124 C-350.76394043 122.98373535 -350.52788086 121.9674707 -350.28466797 120.92041016 C-342.33923494 87.86310563 -327.25906658 58.42252995 -306 32 C-305.3196167 31.15284424 -305.3196167 31.15284424 -304.62548828 30.28857422 C-268.99992635 -13.64507212 -214.94516516 -41.52496457 -158.91015625 -47.56640625 C-102.13206165 -52.39417329 -44.3035593 -36.34618838 0 0 Z " fill="#49BCF0" transform="translate(1137,606)"/>
<path d="M0 0 C1.09183594 0.35578125 2.18367188 0.7115625 3.30859375 1.078125 C19.95140918 6.54673905 36.08790525 12.67841308 52 20 C52.88059082 20.39654785 53.76118164 20.7930957 54.66845703 21.20166016 C86.97588727 35.75579109 116.30731418 55.60355058 142 80 C142.80123291 80.75821045 142.80123291 80.75821045 143.61865234 81.53173828 C151.91178911 89.43547963 159.20900213 97.77765722 166 107 C166.40734375 107.5465625 166.8146875 108.093125 167.234375 108.65625 C178.96059162 124.49425686 185.77582932 138.69191705 183.72265625 158.703125 C181.89074681 169.52011407 177.28371058 178.86474915 170 187 C169.39285156 187.69996094 168.78570313 188.39992188 168.16015625 189.12109375 C163.15205229 194.53885857 157.61904357 197.82920069 151 201 C150.32453125 201.33 149.6490625 201.66 148.953125 202 C142.15354006 205.12901254 135.47628766 205.14603317 128.14624691 205.13422108 C127.15383162 205.13657331 126.16141633 205.13892554 125.13892785 205.14134905 C121.79898273 205.14802908 118.4590766 205.14758112 115.11912537 205.14717102 C112.70607842 205.15047025 110.29303203 205.15419595 107.87998635 205.1583125 C101.93429904 205.1672822 95.9886243 205.17155904 90.042932 205.17383147 C82.92119529 205.17679584 75.79946843 205.18549461 68.6777369 205.19424575 C51.46480935 205.21508106 34.2518801 205.22555834 17.03894288 205.23437535 C8.89510286 205.23858299 0.75126357 205.24380481 -7.39257583 205.24905988 C-35.27303786 205.2669489 -63.15350011 205.28194484 -91.03396702 205.28938007 C-92.78400657 205.28985483 -94.53404613 205.29033072 -96.28408569 205.29080774 C-97.15194104 205.29104411 -98.01979639 205.29128049 -98.91395038 205.29152403 C-103.31087903 205.29272522 -107.70780768 205.29394067 -112.10473633 205.29516602 C-112.97731696 205.29540617 -113.84989759 205.29564632 -114.74892006 205.29589374 C-143.04003504 205.30378666 -171.33110809 205.32721896 -199.62220476 205.35972196 C-229.53732463 205.39402799 -259.45241998 205.4137319 -289.36755985 205.41702431 C-292.65223023 205.41744185 -295.9369006 205.41792141 -299.22157097 205.41844749 C-300.03034165 205.41857069 -300.83911233 205.41869388 -301.67239121 205.4188208 C-314.68160091 205.42115179 -327.69076186 205.43680597 -340.6999542 205.45728934 C-353.77900434 205.47755583 -366.857996 205.48302073 -379.93705893 205.47351871 C-387.70401249 205.46830706 -395.4707712 205.47416525 -403.23769668 205.49605338 C-409.04229167 205.51117305 -414.84671621 205.50530628 -420.65130722 205.49138286 C-422.9958961 205.4890011 -425.34050377 205.49335963 -427.68506391 205.50521151 C-446.52409855 205.5945307 -462.84807103 203.82431027 -477.3125 190.25 C-488.90575889 177.67059254 -493.78390357 163.3685428 -493.51928711 146.49438477 C-493.24097835 139.68484811 -492.23503889 134.06684346 -489 128 C-488.45214844 126.91976563 -487.90429688 125.83953125 -487.33984375 124.7265625 C-482.57077078 115.68285629 -476.50562572 107.8465995 -470 100 C-469.09097156 98.88425655 -468.18211517 97.76837289 -467.2734375 96.65234375 C-457.8604378 85.20300014 -447.62188588 75.20979635 -436 66 C-434.29152434 64.56266916 -432.58319401 63.12516555 -430.875 61.6875 C-416.86188259 50.28331277 -401.70974166 40.87202762 -386 32 C-385.21431641 31.55414551 -384.42863281 31.10829102 -383.61914062 30.64892578 C-365.30607243 20.35672821 -345.77773417 12.30704483 -326.0625 5.125 C-324.7010083 4.62601196 -324.7010083 4.62601196 -323.31201172 4.11694336 C-306.39340695 -1.87909109 -288.9275606 -6.1748801 -271.4375 -10.125 C-270.48632294 -10.34099854 -269.53514587 -10.55699707 -268.55514526 -10.77954102 C-252.78405163 -14.34300432 -237.08642582 -17.24545604 -221 -19 C-219.57059082 -19.16121338 -219.57059082 -19.16121338 -218.11230469 -19.32568359 C-145.80373227 -27.33621588 -69.42272457 -22.72366574 0 0 Z " fill="#34B8ED" transform="translate(1155,1098)"/>
</svg>
